<svg xmlns="http://www.w3.org/2000/svg" viewBox="0 0 128 128" width="128" height="128">
  <!-- Background: Orange/Red gradient -->
  <defs>
    <linearGradient id="bgGradientRed" x1="0%" y1="0%" x2="0%" y2="100%">
      <stop offset="0%" style="stop-color:#ffccbc;stop-opacity:1" /> <!-- Light Red/Orange -->
      <stop offset="100%" style="stop-color:#ff8a65;stop-opacity:1" /> <!-- Deeper Orange/Red -->
    </linearGradient>
  </defs>
  <rect width="128" height="128" rx="20" ry="20" fill="url(#bgGradientRed)"/>
  <!-- Document page: White with darker border -->
  <rect x="24" y="20" width="80" height="88" rx="5" ry="5" fill="#ffffff" stroke="#bdbdbd" stroke-width="1.5"/>
  <!-- Text lines: Darker gray -->
  <line x1="34" y1="35" x2="94" y2="35" stroke="#757575" stroke-width="3.5"/>
  <line x1="34" y1="45" x2="94" y2="45" stroke="#757575" stroke-width="3.5"/>
  <line x1="34" y1="55" x2="94" y2="55" stroke="#757575" stroke-width="3.5"/>
  <line x1="34" y1="65" x2="60" y2="65" stroke="#757575" stroke-width="3.5"/>
  <line x1="34" y1="75" x2="94" y2="75" stroke="#757575" stroke-width="3.5"/>
  <line x1="34" y1="85" x2="94" y2="85" stroke="#757575" stroke-width="3.5"/>
  <line x1="34" y1="95" x2="70" y2="95" stroke="#757575" stroke-width="3.5"/>
  <!-- Wavy annotation underline: Bold Red -->
  <path d="M 34 70 q 8 -6, 16 0 q 8 6, 16 0 q 8 -6, 16 0 q 8 6, 16 0"
        stroke="#d32f2f" stroke-width="5" fill="none" stroke-linecap="round"/> <!-- Bold Red, thicker stroke -->
</svg>
